{"accessors":[{"bufferView":2,"componentType":5126,"count":5500,"max":[0.6590582132339478,0.8818589448928833,-1.7019166520526596e-8],"min":[-0.6582328677177429,-0.881941020488739,-0.21032926440238953],"type":"VEC3"},{"bufferView":2,"byteOffset":66000,"componentType":5126,"count":5500,"max":[1,1,1],"min":[-1,-1,-1],"type":"VEC3"},{"bufferView":1,"componentType":5126,"count":5500,"max":[0,0],"min":[0,0],"type":"VEC2"},{"bufferView":0,"componentType":5125,"count":9108,"type":"SCALAR"}],"asset":{"extras":{"author":"Tiko (https://sketchfab.com/tikoavp)","license":"CC-BY-4.0 (http://creativecommons.org/licenses/by/4.0/)","source":"https://sketchfab.com/3d-models/bitcoin-logo-4c4d85419c924df4abfb83a76ddd3d42","title":"Bitcoin Logo"},"generator":"Sketchfab-12.66.0","version":"2.0"},"bufferViews":[{"buffer":0,"byteLength":36432,"name":"floatBufferViews","target":34963},{"buffer":0,"byteLength":44000,"byteOffset":36432,"byteStride":8,"name":"floatBufferViews","target":34962},{"buffer":0,"byteLength":132000,"byteOffset":80432,"byteStride":12,"name":"floatBufferViews","target":34962}],"buffers":[{"byteLength":212432,"uri":"data:application/octet-stream;base64,"}],"materials":[{"doubleSided":true,"name":"Scene_-_Root","pbrMetallicRoughness":{"roughnessFactor":0.050000000000000044}}],"meshes":[{"name":"Bitcoin Logo__0","primitives":[{"attributes":{"NORMAL":1,"POSITION":0,"TEXCOORD_0":2},"indices":3,"material":0,"mode":4}]}],"nodes":[{"children":[1],"matrix":[1,0,0,0,0,2.220446049250313e-16,-1,0,0,1,2.220446049250313e-16,0,0,0,0,1],"name":"Sketchfab_model"},{"children":[2],"matrix":[1,0,0,0,0,0,1,0,0,-1,0,0,0,0,0,1],"name":"ca8f6b749e9e41439ddfd30ecb277ff4.fbx"},{"children":[3],"name":"RootNode"},{"children":[4],"matrix":[100,0,0,0,0,99.9999999999999,0.000004371138828673792,0,0,-0.000004371138828673792,99.9999999999999,0,0,0,0,1],"name":"Bitcoin Logo"},{"mesh":0,"name":"Bitcoin Logo__0"}],"scene":0,"scenes":[{"name":"Sketchfab_Scene","nodes":[0]}]}